<?xml version="1.0" encoding="utf-8"?>
<!-- Generator: Adobe Illustrator 25.0.1, SVG Export Plug-In . SVG Version: 6.00 Build 0)  -->
<svg version="1.1" id="Layer_1" xmlns="http://www.w3.org/2000/svg" xmlns:xlink="http://www.w3.org/1999/xlink" x="0px" y="0px"
	 viewBox="0 0 595.28 841.89" style="enable-background:new 0 0 595.28 841.89;" xml:space="preserve">
<style type="text/css">
	.st0{fill:#296495;}
	.st1{fill:#5F6160;}
	.st2{fill:#FCFDFD;}
</style>
<path class="st0" d="M344.61,392.33c2.34,0.03,4.67,0.15,6.97,0.57c0.6,0.11,0.84-0.01,1.05-0.59c2.38-6.88,5.75-13.25,10.14-19.06
	c8.89-11.77,20.31-20.08,34.3-24.81c8.96-3.03,18.18-4.11,27.6-3.39c16.58,1.27,30.95,7.66,43.08,18.98
	c9.55,8.92,16.09,19.73,19.65,32.32c0.15,0.54,0.23,0.97,1.03,0.91c6.82-0.51,13.14,1.15,18.88,4.8
	c7.03,4.46,11.64,10.77,13.9,18.79c0.32,1.15,0.32,1.15-0.88,1.36c-1.21,0.22-2.43,0.4-3.62,0.69c-0.74,0.18-1.05,0.04-1.28-0.74
	c-2.44-8.22-7.6-14.06-15.55-17.29c-6.34-2.58-12.77-2.42-19.15,0.01c-1.18,0.45-1.18,0.48-1.42-0.72
	c-2.9-14.58-10.08-26.62-21.57-36.03c-8.54-6.99-18.29-11.41-29.23-12.92c-20.61-2.85-38.34,3.22-52.96,17.94
	c-8.33,8.39-13.57,18.57-15.95,30.18c-0.33,1.62-0.63,3.24-0.78,4.89c-0.06,0.71-0.27,0.86-0.95,0.54c-4.19-2-8.63-2.98-13.26-2.99
	c-14.23-0.05-26.83,9.6-30.51,23.37c-0.25,0.93-0.7,1.18-1.55,1.31c-3.84,0.59-7.67,1.24-11.5,1.87c-1.29,0.21-1.27,0.22-1.09-1.07
	c1.45-10.44,6.04-19.29,13.64-26.54c6.24-5.96,13.66-9.77,22.13-11.5C338.66,392.59,341.62,392.35,344.61,392.33z"/>
<path class="st1" d="M238.42,479.75c-4.74,0-9.48,0.02-14.22-0.01c-0.79,0-1.01,0.14-0.8,0.98c1.1,4.43,4.22,6.66,8.41,7.48
	c5.6,1.1,11.1,0.3,16.46-1.51c0.82-0.28,1.06-0.22,1.19,0.7c0.43,2.98,0.95,5.95,1.48,8.91c0.14,0.75-0.08,1.06-0.79,1.33
	c-3.33,1.27-6.81,1.85-10.32,2.24c-4.14,0.46-8.29,0.51-12.39-0.37c-9.23-1.98-15.71-8.02-17.41-17.85
	c-0.98-5.66-0.84-11.27,1.27-16.66c3.1-7.92,8.8-12.96,17.28-14.23c7.51-1.13,14.43,0.37,19.81,6.26c3.06,3.35,4.42,7.48,5.07,11.89
	c0.49,3.32,0.45,6.66,0.21,10c-0.05,0.68-0.29,0.85-0.95,0.85C247.97,479.74,243.2,479.75,238.42,479.75z M232.01,470.55
	c2.27,0,4.54,0,6.81,0c2.23,0,2.23,0,1.79-2.23c-1.24-6.23-8.41-8.98-13.52-5.21c-2.21,1.63-3.08,3.98-3.66,6.53
	c-0.17,0.72-0.09,0.95,0.72,0.94C226.76,470.52,229.39,470.55,232.01,470.55z"/>
<path class="st1" d="M119.28,474.75c0-7.72,0.01-15.45-0.01-23.17c0-0.75,0.1-1,0.95-0.8c1.7,0.4,3.43,0.65,5.15,0.98
	c0.83,0.16,1.61-0.12,2.4-0.23c6.31-0.87,12.64-1.55,18.95-0.13c7.12,1.6,11.43,6.28,12.69,13.45c0.45,2.57,0.65,5.14,0.65,7.74
	c-0.01,8.44-0.02,16.88,0.01,25.32c0,0.86-0.22,1.07-1.08,1.06c-3.8-0.05-7.6-0.05-11.39,0c-0.8,0.01-0.95-0.25-0.95-0.99
	c0.02-8.24,0.03-16.49,0.01-24.73c-0.01-2.08-0.16-4.15-0.71-6.16c-0.87-3.17-2.77-4.74-6.04-4.95c-2.14-0.14-4.28,0.05-6.41,0.23
	c-0.81,0.07-0.78,0.53-0.78,1.11c0.01,11.49,0,22.98,0.02,34.47c0,0.8-0.18,1.03-1,1.02c-3.8-0.05-7.6-0.06-11.39,0
	c-0.94,0.02-1.08-0.3-1.08-1.14C119.3,490.13,119.29,482.44,119.28,474.75z"/>
<path class="st1" d="M272.85,500.18c-3.64,0.12-8.58-0.82-13.4-2.48c-0.73-0.25-0.97-0.53-0.77-1.38c0.69-2.99,1.27-6.01,1.86-9.03
	c0.13-0.69,0.32-0.86,1.05-0.58c4.21,1.62,8.57,2.54,13.08,2.59c1.52,0.02,3.04-0.04,4.53-0.43c1.16-0.31,2.01-0.92,2.27-2.13
	c0.29-1.33-0.11-2.45-1.21-3.26c-1.61-1.18-3.44-1.93-5.28-2.66c-2.47-0.98-4.96-1.89-7.34-3.09c-3.39-1.73-6.11-4.14-7.18-7.9
	c-2.26-7.97,0.54-15.35,9.42-18.21c4.44-1.43,9.01-1.39,13.58-0.88c2.9,0.33,5.74,0.94,8.53,1.83c0.58,0.19,0.84,0.34,0.66,1.06
	c-0.72,2.99-1.36,5.99-2,9c-0.13,0.61-0.37,0.65-0.92,0.46c-3.49-1.18-7.05-1.94-10.76-1.84c-1.23,0.03-2.47,0.1-3.64,0.52
	c-1.23,0.44-2.18,1.18-2.35,2.58c-0.17,1.39,0.39,2.44,1.59,3.19c1.88,1.18,3.93,1.98,5.99,2.76c2.4,0.9,4.72,1.95,6.99,3.14
	c5.55,2.91,7.68,7.57,7.28,13.66c-0.39,5.91-3.7,9.46-9.04,11.43C282.1,499.89,278.23,500.19,272.85,500.18z"/>
<path class="st1" d="M299.61,461.55c0-6.85,0.02-13.69-0.03-20.54c-0.01-0.88,0.3-1.14,1.09-1.26c3.84-0.58,7.68-1.18,11.51-1.84
	c0.76-0.13,0.86,0.05,0.86,0.74c-0.03,4.02,0.01,8.05-0.03,12.07c-0.01,0.78,0.18,1.04,1.01,1.03c4.71-0.04,9.41,0,14.12-0.03
	c0.7,0,0.95,0.14,0.94,0.9c-0.05,3.11-0.04,6.23,0,9.35c0.01,0.72-0.17,0.94-0.92,0.93c-4.71-0.04-9.41,0-14.12-0.04
	c-0.78-0.01-1.05,0.15-1.04,0.99c0.05,5.74,0.04,11.49,0.07,17.23c0.01,1.37,0.36,2.69,0.84,3.97c0.92,2.45,2.87,3.38,5.31,3.56
	c2.88,0.21,5.69-0.22,8.45-1c1.36-0.38,1.38-0.39,1.63,0.95c0.52,2.8,1,5.61,1.54,8.4c0.09,0.49-0.01,0.67-0.47,0.85
	c-5.08,2.02-10.35,2.54-15.76,1.99c-2.84-0.29-5.53-1.04-7.96-2.58c-3.8-2.4-5.65-6.03-6.44-10.31c-0.45-2.43-0.63-4.88-0.62-7.35
	C299.62,473.55,299.61,467.55,299.61,461.55z"/>
<path class="st1" d="M185.49,482.81c2.08-5.73,3.93-11.21,5.64-16.74c1.39-4.51,2.81-9.02,3.95-13.61c0.15-0.59,0.44-0.73,1.02-0.72
	c4.09,0.02,8.18,0.04,12.27-0.01c0.81-0.01,0.73,0.25,0.55,0.84c-3.4,11.39-7.37,22.58-12.04,33.52c-1.73,4.05-3.59,8.05-5.52,12.01
	c-0.31,0.64-0.68,0.87-1.4,0.86c-3.08-0.04-6.17-0.05-9.25,0c-0.74,0.01-1.06-0.25-1.38-0.88c-4.47-8.97-8.27-18.22-11.7-27.63
	c-2.14-5.87-4.03-11.82-5.89-17.78c-0.25-0.8-0.1-0.96,0.71-0.95c4.15,0.04,8.31,0.04,12.46,0.01c0.59,0,0.86,0.17,1.01,0.74
	c2.3,8.63,5.01,17.14,7.86,25.61C184.28,479.58,184.85,481.05,185.49,482.81z"/>
<path class="st0" d="M516.51,455.19c0-0.64,0-1.09,0-1.54c0-7.43,0.01-14.86-0.02-22.29c0-0.81,0.19-1.12,1.04-1.22
	c1.41-0.16,2.81-0.47,4.2-0.76c0.52-0.11,0.72-0.01,0.69,0.54c-0.03,0.52-0.01,1.04-0.01,1.56c0,22.52,0,45.03,0.02,67.55
	c0,0.83-0.24,1.01-1,0.84c-1.2-0.27-2.42-0.45-3.62-0.71c-1.69-0.38-3.25,0.37-4.88,0.5c-4.92,0.39-9.85,0.81-14.67-0.6
	c-7.14-2.08-11.86-6.79-14.13-13.8c-2.28-7.04-2.06-14.15,0.61-21.06c3.1-8.04,9.89-12.55,18.51-12.68
	c4.59-0.07,8.86,0.99,12.77,3.41C516.12,454.98,516.23,455.04,516.51,455.19z M516.53,477.22c0-5.03-0.02-10.06,0.02-15.09
	c0.01-0.83-0.22-1.34-0.94-1.81c-3.74-2.4-7.79-3.54-12.24-3.46c-5.76,0.1-10.53,3.2-12.65,8.55c-2.18,5.5-2.39,11.21-1.07,16.91
	c1.34,5.83,4.81,9.98,10.7,11.61c5.18,1.44,10.41,0.78,15.59-0.33c0.6-0.13,0.62-0.51,0.61-1
	C516.53,487.47,516.53,482.35,516.53,477.22z"/>
<path class="st0" d="M435.59,475.92c-0.05,5.65-1.21,11.12-4.7,15.83c-4.36,5.88-10.32,8.51-17.63,8.22
	c-9.8-0.38-17.63-7.41-19.55-18.17c-1.06-5.92-0.69-11.74,1.55-17.39c3.47-8.77,11.96-13.83,21.34-12.89
	c8.36,0.83,15.45,6.57,18,16.19C435.3,470.36,435.58,473.07,435.59,475.92z M429.35,475.79c0.03-2.38-0.23-4.73-0.81-7.03
	c-1.67-6.65-6.19-11.57-13.05-11.96c-5.2-0.29-9.47,1.42-12.53,5.77c-2.36,3.35-3.27,7.15-3.5,11.16
	c-0.29,4.93,0.22,9.73,2.79,14.08c2.92,4.95,7.36,7.13,13.03,6.83c5.28-0.27,9.08-2.88,11.57-7.49
	C428.78,483.6,429.31,479.75,429.35,475.79z"/>
<path class="st0" d="M477.16,476.27c0,7.53,0,15.06,0,22.59c0,1.18-0.01,1.2-1.19,0.94c-1.61-0.35-3.26-0.5-4.85-0.97
	c-0.44-0.13-1,0.13-1.51,0.21c-5.08,0.81-10.18,1.24-15.29,0.34c-6.6-1.16-10.6-5.19-12.31-11.59c-0.82-3.06-1.07-6.19-1.07-9.34
	c0-8.34,0.01-16.68-0.02-25.02c0-0.71,0.16-0.97,0.91-0.93c1.36,0.06,2.73,0.07,4.09,0c0.81-0.04,0.95,0.27,0.94,1
	c-0.02,8.08-0.02,16.16-0.02,24.24c0,3.19,0.27,6.34,1.27,9.4c1.37,4.19,4.31,6.55,8.62,7.11c4.54,0.6,9.05,0.21,13.53-0.68
	c0.8-0.16,1.01-0.49,1.01-1.29c-0.03-12.92-0.01-25.83-0.03-38.75c0-0.79,0.17-1.08,1.01-1.03c1.2,0.08,2.4,0.01,3.6,0.02
	c1.46,0.02,1.31-0.24,1.31,1.27c0.01,5.81,0,11.62,0,17.43C477.16,472.89,477.16,474.58,477.16,476.27z"/>
<path class="st1" d="M98.64,475.32c0-7.53,0.01-15.06-0.02-22.58c0-0.82,0.21-1.02,1.02-1.01c3.86,0.04,7.72,0.04,11.58,0.01
	c0.68-0.01,0.87,0.19,0.87,0.87c-0.02,15.19-0.02,30.37,0,45.56c0,0.66-0.21,0.8-0.83,0.8c-3.93-0.03-7.85-0.03-11.78,0
	c-0.69,0.01-0.86-0.18-0.86-0.86C98.65,490.5,98.64,482.91,98.64,475.32C98.64,475.32,98.64,475.32,98.64,475.32z"/>
<path class="st0" d="M341.15,475.88c0.12,3.44,0.39,6.93,1.86,10.19c2.12,4.71,5.85,7.33,10.85,8.17c4.64,0.78,9.17,0.39,13.47-1.69
	c0.55-0.27,0.77-0.18,0.9,0.45c0.25,1.2,0.56,2.4,0.9,3.58c0.18,0.61-0.03,0.88-0.57,1.1c-4.53,1.83-9.23,2.53-14.09,2.15
	c-3.23-0.25-6.32-1.03-9.17-2.64c-4.6-2.6-7.44-6.6-8.9-11.57c-2.35-7.99-2.18-15.92,1.63-23.46c3.19-6.31,8.49-9.81,15.53-10.57
	c4.5-0.49,8.93-0.04,13.25,1.36c1.71,0.55,1.7,0.59,1.18,2.32c-0.26,0.87-0.58,1.72-0.77,2.61c-0.17,0.76-0.44,0.78-1.12,0.5
	c-4.58-1.9-9.34-2.15-14.11-0.99c-4.95,1.2-7.85,4.66-9.48,9.32C341.48,469.66,341.25,472.73,341.15,475.88z"/>
<path class="st0" d="M377.73,460.19c0-9.6,0.01-19.21-0.02-28.81c0-0.81,0.2-1.12,1.02-1.22c1.41-0.18,2.8-0.48,4.2-0.76
	c0.5-0.1,0.72,0,0.67,0.55c-0.04,0.39-0.01,0.78-0.01,1.17c0,18.76,0,37.51,0,56.27c0,1.07,0.11,2.13,0.32,3.18
	c0.4,2,1.61,3.2,3.54,3.7c0.78,0.2,1.58,0.37,2.38,0.49c0.53,0.08,0.61,0.33,0.53,0.79c-0.21,1.18-0.4,2.36-0.61,3.54
	c-0.06,0.36-0.12,0.7-0.64,0.66c-2.37-0.17-4.71-0.46-6.82-1.68c-2.83-1.65-3.99-4.3-4.39-7.4c-0.19-1.45-0.2-2.91-0.19-4.37
	C377.74,477.59,377.73,468.89,377.73,460.19z"/>
<path class="st1" d="M113.33,438.11c-0.01,4.61-3.37,7.9-8.04,7.88c-4.66-0.02-7.98-3.28-7.98-7.84c0-4.76,3.3-8,8.13-7.98
	C110.01,430.19,113.34,433.54,113.33,438.11z"/>
<path class="st0" d="M495.93,392.05c-3.99-0.01-6.77-3.02-6.75-7.31c0.01-4.09,2.89-7.11,6.79-7.13c3.89-0.02,6.79,3.05,6.81,7.21
	C502.8,389.03,499.93,392.06,495.93,392.05z M495.98,378.75c-3.3,0-5.57,2.47-5.61,6.12c-0.04,3.48,2.42,6.17,5.62,6.16
	c3.21-0.01,5.54-2.63,5.54-6.23C501.53,381.24,499.24,378.75,495.98,378.75z"/>
<path class="st2" d="M232.01,470.55c-2.63,0-5.25-0.03-7.88,0.02c-0.81,0.02-0.88-0.21-0.72-0.94c0.58-2.55,1.45-4.9,3.66-6.53
	c5.12-3.77,12.29-1.01,13.52,5.21c0.44,2.23,0.44,2.23-1.79,2.23C236.55,470.55,234.28,470.55,232.01,470.55z"/>
<path class="st2" d="M516.53,477.22c0,5.13,0,10.25,0.01,15.38c0,0.49-0.02,0.87-0.61,1c-5.18,1.11-10.4,1.77-15.59,0.33
	c-5.89-1.63-9.35-5.79-10.7-11.61c-1.32-5.7-1.1-11.41,1.07-16.91c2.12-5.35,6.89-8.45,12.65-8.55c4.45-0.08,8.5,1.06,12.24,3.46
	c0.72,0.47,0.95,0.98,0.94,1.81C516.52,467.16,516.53,472.19,516.53,477.22z"/>
<path class="st2" d="M429.35,475.79c-0.05,3.96-0.58,7.81-2.49,11.36c-2.49,4.62-6.29,7.22-11.57,7.49
	c-5.67,0.29-10.11-1.89-13.03-6.83c-2.57-4.35-3.07-9.15-2.79-14.08c0.23-4.01,1.14-7.81,3.5-11.16c3.06-4.35,7.33-6.06,12.53-5.77
	c6.86,0.38,11.37,5.3,13.05,11.96C429.13,471.06,429.38,473.41,429.35,475.79z"/>
<path class="st2" d="M495.98,378.75c3.26,0,5.55,2.5,5.56,6.05c0,3.6-2.33,6.22-5.54,6.23c-3.21,0.01-5.66-2.68-5.62-6.16
	C490.41,381.22,492.68,378.75,495.98,378.75z M499.29,388.7c-0.44-0.94-0.96-1.79-1.56-2.58c-0.28-0.36-0.45-0.61,0.11-0.94
	c0.79-0.47,1.08-1.27,0.96-2.18c-0.11-0.92-0.62-1.55-1.49-1.86c-1.2-0.43-2.43-0.28-3.66-0.17c-0.46,0.04-0.43,0.4-0.43,0.73
	c0,2.17,0.01,4.34,0,6.52c0,0.37,0.02,0.61,0.51,0.58c0.44-0.02,0.67-0.12,0.64-0.61c-0.03-0.45-0.01-0.91-0.01-1.36
	c0-1.25-0.01-1.22,1.23-1.16c0.43,0.02,0.65,0.23,0.86,0.53c0.41,0.62,0.88,1.21,1.21,1.88
	C498.02,388.81,498.53,388.91,499.29,388.7z"/>
<path class="st0" d="M499.29,388.7c-0.76,0.2-1.27,0.11-1.64-0.63c-0.33-0.66-0.79-1.26-1.21-1.88c-0.2-0.3-0.43-0.51-0.86-0.53
	c-1.24-0.06-1.24-0.08-1.23,1.16c0,0.45-0.02,0.91,0.01,1.36c0.03,0.49-0.2,0.59-0.64,0.61c-0.48,0.02-0.51-0.21-0.51-0.58
	c0.01-2.17,0.01-4.34,0-6.52c0-0.33-0.03-0.69,0.43-0.73c1.23-0.1,2.46-0.25,3.66,0.17c0.87,0.31,1.38,0.94,1.49,1.86
	c0.11,0.91-0.17,1.71-0.96,2.18c-0.56,0.33-0.39,0.57-0.11,0.94C498.33,386.92,498.85,387.76,499.29,388.7z M494.36,383.26
	c0,1.54,0,1.54,0.92,1.53c1.53-0.01,2.33-0.52,2.31-1.47c-0.01-0.94-0.85-1.39-2.33-1.48C493.86,381.76,494.53,382.77,494.36,383.26
	z"/>
<path class="st2" d="M494.36,383.26c0.17-0.5-0.5-1.5,0.9-1.42c1.49,0.09,2.32,0.54,2.33,1.48c0.01,0.95-0.78,1.46-2.31,1.47
	C494.36,384.8,494.36,384.8,494.36,383.26z"/>
</svg>
