<?xml version="1.0" encoding="utf-8"?>
<!-- Generator: Adobe Illustrator 25.0.1, SVG Export Plug-In . SVG Version: 6.00 Build 0)  -->
<svg version="1.1" id="Layer_1" xmlns="http://www.w3.org/2000/svg" xmlns:xlink="http://www.w3.org/1999/xlink" x="0px" y="0px"
	 viewBox="0 0 1920 1080" style="enable-background:new 0 0 1920 1080;" xml:space="preserve">
<style type="text/css">
	.st0{fill:#296495;}
	.st1{fill:#5F6160;}
</style>
<path class="st0" d="M1088.84,426.96c8.78,0.11,17.52,0.56,26.15,2.14c2.25,0.41,3.15-0.04,3.94-2.21
	c8.93-25.81,21.57-49.71,38.04-71.51c33.35-44.16,76.2-75.34,128.69-93.08c33.62-11.37,68.21-15.42,103.55-12.72
	c62.21,4.76,116.12,28.74,161.63,71.21c35.83,33.47,60.37,74.02,73.72,121.26c0.56,2.03,0.86,3.64,3.86,3.41
	c25.59-1.91,49.3,4.31,70.84,18.01c26.38,16.73,43.67,40.41,52.15,70.5c1.2,4.31,1.2,4.31-3.3,5.1c-4.54,0.83-9.12,1.5-13.58,2.59
	c-2.78,0.68-3.94,0.15-4.8-2.78c-9.15-30.84-28.51-52.75-58.34-64.87c-23.79-9.68-47.91-9.08-71.85,0.04
	c-4.43,1.69-4.43,1.8-5.33-2.7c-10.88-54.7-37.82-99.88-80.93-135.18c-32.04-26.23-68.62-42.81-109.67-48.47
	c-77.33-10.69-143.85,12.08-198.7,67.31c-31.25,31.48-50.91,69.67-59.84,113.23c-1.24,6.08-2.36,12.16-2.93,18.35
	c-0.23,2.66-1.01,3.23-3.56,2.03c-15.72-7.5-32.38-11.18-49.75-11.22c-53.39-0.19-100.66,36.02-114.47,87.68
	c-0.94,3.49-2.63,4.43-5.82,4.91c-14.41,2.21-28.78,4.65-43.15,7.02c-4.84,0.79-4.76,0.83-4.09-4.01
	c5.44-39.17,22.66-72.37,51.18-99.57c23.41-22.36,51.25-36.66,83.03-43.15C1066.52,427.94,1077.62,427.04,1088.84,426.96z"/>
<path class="st1" d="M690.43,754.95c-17.78,0-35.57,0.08-53.35-0.04c-2.96,0-3.79,0.53-3,3.68c4.13,16.62,15.83,24.99,31.55,28.06
	c21.01,4.13,41.65,1.13,61.76-5.67c3.08-1.05,3.98-0.83,4.46,2.63c1.61,11.18,3.56,22.32,5.55,33.43c0.53,2.81-0.3,3.98-2.96,4.99
	c-12.49,4.76-25.55,6.94-38.72,8.4c-15.53,1.73-31.1,1.91-46.49-1.39c-34.63-7.43-58.94-30.09-65.32-66.97
	c-3.68-21.24-3.15-42.28,4.76-62.51c11.63-29.71,33.02-48.62,64.83-53.39c28.18-4.24,54.14,1.39,74.32,23.49
	c11.48,12.57,16.58,28.06,19.02,44.61c1.84,12.46,1.69,24.99,0.79,37.52c-0.19,2.55-1.09,3.19-3.56,3.19
	C726.26,754.91,708.36,754.95,690.43,754.95z M666.38,720.44c8.52,0,17.03,0,25.55,0c8.37,0,8.37,0,6.72-8.37
	c-4.65-23.37-31.55-33.69-50.73-19.55c-8.29,6.12-11.56,14.93-13.73,24.5c-0.64,2.7-0.34,3.56,2.7,3.53
	C646.68,720.32,656.55,720.44,666.38,720.44z"/>
<path class="st1" d="M243.43,736.19c0-28.96,0.04-57.97-0.04-86.93c0-2.81,0.38-3.75,3.56-3c6.38,1.5,12.87,2.44,19.32,3.68
	c3.11,0.6,6.04-0.45,9-0.86c23.67-3.26,47.42-5.82,71.1-0.49c26.71,6,42.88,23.56,47.61,50.46c1.69,9.64,2.44,19.28,2.44,29.04
	c-0.04,31.67-0.08,63.33,0.04,95c0,3.23-0.83,4.01-4.05,3.98c-14.26-0.19-28.51-0.19-42.73,0c-3,0.04-3.56-0.94-3.56-3.71
	c0.08-30.92,0.11-61.87,0.04-92.78c-0.04-7.8-0.6-15.57-2.66-23.11c-3.26-11.89-10.39-17.78-22.66-18.57
	c-8.03-0.53-16.06,0.19-24.05,0.86c-3.04,0.26-2.93,1.99-2.93,4.16c0.04,43.11,0,86.22,0.08,129.33c0,3-0.68,3.86-3.75,3.83
	c-14.26-0.19-28.51-0.23-42.73,0c-3.53,0.08-4.05-1.13-4.05-4.28C243.5,793.9,243.47,765.04,243.43,736.19z"/>
<path class="st1" d="M819.61,831.6c-13.66,0.45-32.19-3.08-50.28-9.3c-2.74-0.94-3.64-1.99-2.89-5.18
	c2.59-11.22,4.76-22.55,6.98-33.88c0.49-2.59,1.2-3.23,3.94-2.18c15.8,6.08,32.15,9.53,49.07,9.72c5.7,0.08,11.41-0.15,17-1.61
	c4.35-1.16,7.54-3.45,8.52-7.99c1.09-4.99-0.41-9.19-4.54-12.23c-6.04-4.43-12.91-7.24-19.81-9.98
	c-9.27-3.68-18.61-7.09-27.54-11.59c-12.72-6.49-22.92-15.53-26.94-29.64c-8.48-29.9,2.03-57.59,35.34-68.32
	c16.66-5.37,33.8-5.22,50.95-3.3c10.88,1.24,21.54,3.53,32,6.87c2.18,0.71,3.15,1.28,2.48,3.98c-2.7,11.22-5.1,22.47-7.5,33.77
	c-0.49,2.29-1.39,2.44-3.45,1.73c-13.09-4.43-26.45-7.28-40.37-6.9c-4.61,0.11-9.27,0.38-13.66,1.95c-4.61,1.65-8.18,4.43-8.82,9.68
	c-0.64,5.22,1.46,9.15,5.97,11.97c7.05,4.43,14.74,7.43,22.47,10.36c9,3.38,17.71,7.32,26.23,11.78
	c20.82,10.92,28.81,28.4,27.31,51.25c-1.46,22.17-13.88,35.49-33.92,42.88C854.31,830.52,839.79,831.64,819.61,831.6z"/>
<path class="st1" d="M920.01,686.67c0-25.7,0.07-51.36-0.11-77.06c-0.04-3.3,1.13-4.28,4.09-4.73c14.41-2.18,28.81-4.43,43.18-6.9
	c2.85-0.49,3.23,0.19,3.23,2.78c-0.11,15.08,0.04,30.2-0.11,45.29c-0.04,2.93,0.68,3.9,3.79,3.86c17.67-0.15,35.31,0,52.98-0.11
	c2.63,0,3.56,0.53,3.53,3.38c-0.19,11.67-0.15,23.37,0,35.08c0.04,2.7-0.64,3.53-3.45,3.49c-17.67-0.15-35.31,0-52.98-0.15
	c-2.93-0.04-3.94,0.56-3.9,3.71c0.19,21.54,0.15,43.11,0.26,64.64c0.04,5.14,1.35,10.09,3.15,14.89
	c3.45,9.19,10.77,12.68,19.92,13.36c10.81,0.79,21.35-0.83,31.7-3.75c5.1-1.43,5.18-1.46,6.12,3.56
	c1.95,10.51,3.75,21.05,5.78,31.52c0.34,1.84-0.04,2.51-1.76,3.19c-19.06,7.58-38.83,9.53-59.13,7.47
	c-10.66-1.09-20.75-3.9-29.86-9.68c-14.26-9-21.2-22.62-24.16-38.68c-1.69-9.12-2.36-18.31-2.33-27.58
	C920.04,731.69,920.01,709.18,920.01,686.67z"/>
<path class="st1" d="M491.84,766.43c7.8-21.5,14.74-42.06,21.16-62.81c5.22-16.92,10.54-33.84,14.82-51.06
	c0.56-2.21,1.65-2.74,3.83-2.7c15.35,0.07,30.69,0.15,46.04-0.04c3.04-0.04,2.74,0.94,2.06,3.15
	c-12.76,42.73-27.65,84.72-45.17,125.76c-6.49,15.2-13.47,30.2-20.71,45.06c-1.16,2.4-2.55,3.26-5.25,3.23
	c-11.56-0.15-23.15-0.19-34.7,0c-2.78,0.04-3.98-0.94-5.18-3.3c-16.77-33.65-31.03-68.36-43.9-103.66
	c-8.03-22.02-15.12-44.35-22.1-66.71c-0.94-3-0.38-3.6,2.66-3.56c15.57,0.15,31.18,0.15,46.75,0.04c2.21,0,3.23,0.64,3.79,2.78
	c8.63,32.38,18.8,64.31,29.49,96.09C487.3,754.31,489.44,759.83,491.84,766.43z"/>
<path class="st0" d="M1733.79,662.81c0-2.4,0-4.09,0-5.78c0-27.88,0.04-55.75-0.08-83.63c0-3.04,0.71-4.2,3.9-4.58
	c5.29-0.6,10.54-1.76,15.76-2.85c1.95-0.41,2.7-0.04,2.59,2.03c-0.11,1.95-0.04,3.9-0.04,5.85c0,84.49,0,168.95,0.08,253.44
	c0,3.11-0.9,3.79-3.75,3.15c-4.5-1.01-9.08-1.69-13.58-2.66c-6.34-1.43-12.19,1.39-18.31,1.88c-18.46,1.46-36.96,3.04-55.04-2.25
	c-26.79-7.8-44.5-25.48-53.01-51.78c-8.55-26.41-7.73-53.09,2.29-79.01c11.63-30.17,37.11-47.09,69.45-47.57
	c17.22-0.26,33.24,3.71,47.91,12.79C1732.33,662.02,1732.74,662.24,1733.79,662.81z M1733.86,745.46c0-18.87-0.08-37.74,0.08-56.62
	c0.04-3.11-0.83-5.03-3.53-6.79c-14.03-9-29.23-13.28-45.92-12.98c-21.61,0.38-39.51,12.01-47.46,32.08
	c-8.18,20.64-8.97,42.06-4.01,63.44c5.03,21.87,18.05,37.44,40.15,43.56c19.43,5.4,39.06,2.93,58.49-1.24
	c2.25-0.49,2.33-1.91,2.29-3.75C1733.86,783.92,1733.86,764.71,1733.86,745.46z"/>
<path class="st0" d="M1430.19,740.58c-0.19,21.2-4.54,41.72-17.63,59.39c-16.36,22.06-38.72,31.93-66.15,30.84
	c-36.77-1.43-66.15-27.8-73.35-68.17c-3.98-22.21-2.59-44.05,5.82-65.25c13.02-32.9,44.87-51.89,80.07-48.36
	c31.37,3.11,57.97,24.65,67.53,60.74C1429.1,719.72,1430.15,729.89,1430.19,740.58z M1406.77,740.09
	c0.11-8.93-0.86-17.75-3.04-26.38c-6.27-24.95-23.22-43.41-48.96-44.87c-19.51-1.09-35.53,5.33-47.01,21.65
	c-8.85,12.57-12.27,26.83-13.13,41.87c-1.09,18.5,0.83,36.51,10.47,52.83c10.96,18.57,27.61,26.75,48.89,25.63
	c19.81-1.01,34.07-10.81,43.41-28.1C1404.64,769.4,1406.62,754.95,1406.77,740.09z"/>
<path class="st0" d="M1586.15,741.9c0,28.25,0,56.5,0,84.76c0,4.43-0.04,4.5-4.46,3.53c-6.04-1.31-12.23-1.88-18.2-3.64
	c-1.65-0.49-3.75,0.49-5.67,0.79c-19.06,3.04-38.19,4.65-57.37,1.28c-24.76-4.35-39.77-19.47-46.19-43.48
	c-3.08-11.48-4.01-23.22-4.01-35.04c0-31.29,0.04-62.58-0.07-93.87c0-2.66,0.6-3.64,3.41-3.49c5.1,0.23,10.24,0.26,15.35,0
	c3.04-0.15,3.56,1.01,3.53,3.75c-0.07,30.32-0.07,60.63-0.07,90.95c0,11.97,1.01,23.79,4.76,35.27
	c5.14,15.72,16.17,24.57,32.34,26.68c17.03,2.25,33.95,0.79,50.76-2.55c3-0.6,3.79-1.84,3.79-4.84
	c-0.11-48.47-0.04-96.91-0.11-145.39c0-2.96,0.64-4.05,3.79-3.86c4.5,0.3,9,0.04,13.51,0.08c5.48,0.08,4.91-0.9,4.91,4.76
	c0.04,21.8,0,43.6,0,65.4C1586.15,729.21,1586.15,735.56,1586.15,741.9z"/>
<path class="st1" d="M165.99,738.33c0-28.25,0.04-56.5-0.08-84.72c0-3.08,0.79-3.83,3.83-3.79c14.48,0.15,28.96,0.15,43.45,0.04
	c2.55-0.04,3.26,0.71,3.26,3.26c-0.08,56.99-0.08,113.94,0,170.94c0,2.48-0.79,3-3.11,3c-14.74-0.11-29.45-0.11-44.2,0
	c-2.59,0.04-3.23-0.68-3.23-3.23C166.03,795.29,165.99,766.81,165.99,738.33L165.99,738.33z"/>
<path class="st0" d="M1075.86,740.43c0.45,12.91,1.46,26,6.98,38.23c7.95,17.67,21.95,27.5,40.71,30.65
	c17.41,2.93,34.4,1.46,50.54-6.34c2.06-1.01,2.89-0.68,3.38,1.69c0.94,4.5,2.1,9,3.38,13.43c0.68,2.29-0.11,3.3-2.14,4.13
	c-17,6.87-34.63,9.49-52.86,8.07c-12.12-0.94-23.71-3.86-34.4-9.91c-17.26-9.75-27.91-24.76-33.39-43.41
	c-8.82-29.98-8.18-59.73,6.12-88.02c11.97-23.67,31.85-36.81,58.27-39.66c16.88-1.84,33.5-0.15,49.71,5.1
	c6.42,2.06,6.38,2.21,4.43,8.7c-0.98,3.26-2.18,6.45-2.89,9.79c-0.64,2.85-1.65,2.93-4.2,1.88c-17.18-7.13-35.04-8.07-52.94-3.71
	c-18.57,4.5-29.45,17.48-35.57,34.97C1077.1,717.1,1076.23,728.61,1075.86,740.43z"/>
<path class="st0" d="M1213.1,681.57c0-36.02,0.04-72.07-0.08-108.09c0-3.04,0.75-4.2,3.83-4.58c5.29-0.68,10.51-1.8,15.76-2.85
	c1.88-0.38,2.7,0,2.51,2.06c-0.15,1.46-0.04,2.93-0.04,4.39c0,70.39,0,140.73,0,211.12c0,4.01,0.41,7.99,1.2,11.93
	c1.5,7.5,6.04,12.01,13.28,13.88c2.93,0.75,5.93,1.39,8.93,1.84c1.99,0.3,2.29,1.24,1.99,2.96c-0.79,4.43-1.5,8.85-2.29,13.28
	c-0.23,1.35-0.45,2.63-2.4,2.48c-8.89-0.64-17.67-1.73-25.59-6.3c-10.62-6.19-14.97-16.13-16.47-27.76
	c-0.71-5.44-0.75-10.92-0.71-16.4C1213.14,746.85,1213.1,714.21,1213.1,681.57z"/>
<path class="st1" d="M221.11,598.72c-0.04,17.3-12.64,29.64-30.17,29.56c-17.48-0.08-29.94-12.31-29.94-29.41
	c0-17.86,12.38-30.02,30.5-29.94C208.65,569.01,221.14,581.58,221.11,598.72z"/>
<path class="st0" d="M1656.58,425.91c-14.97-0.04-25.4-11.33-25.33-27.43c0.04-15.35,10.84-26.68,25.48-26.75
	c14.59-0.07,25.48,11.44,25.55,27.05C1682.35,414.58,1671.58,425.95,1656.58,425.91z M1656.76,376.01
	c-12.38,0-20.9,9.27-21.05,22.96c-0.15,13.06,9.08,23.15,21.09,23.11c12.04-0.04,20.79-9.87,20.79-23.37
	C1677.59,385.35,1668.99,376.01,1656.76,376.01z"/>
<path class="st0" d="M1669.18,413.34c-2.85,0.75-4.76,0.41-6.15-2.36c-1.24-2.48-2.96-4.73-4.54-7.05
	c-0.75-1.13-1.61-1.91-3.23-1.99c-4.65-0.23-4.65-0.3-4.61,4.35c0,1.69-0.07,3.41,0.04,5.1c0.11,1.84-0.75,2.21-2.4,2.29
	c-1.8,0.08-1.91-0.79-1.91-2.18c0.04-8.14,0.04-16.28,0-24.46c0-1.24-0.11-2.59,1.61-2.74c4.61-0.38,9.23-0.94,13.73,0.64
	c3.26,1.16,5.18,3.53,5.59,6.98c0.41,3.41-0.64,6.42-3.6,8.18c-2.1,1.24-1.46,2.14-0.41,3.53
	C1665.58,406.67,1667.53,409.82,1669.18,413.34z M1650.68,392.93c0,5.78,0,5.78,3.45,5.74c5.74-0.04,8.74-1.95,8.67-5.52
	c-0.04-3.53-3.19-5.22-8.74-5.55C1648.81,387.31,1651.32,391.09,1650.68,392.93z"/>
</svg>
