<?xml version="1.0" encoding="utf-8"?>
<!-- Generator: Adobe Illustrator 25.0.1, SVG Export Plug-In . SVG Version: 6.00 Build 0)  -->
<svg version="1.1" id="Layer_1" xmlns="http://www.w3.org/2000/svg" xmlns:xlink="http://www.w3.org/1999/xlink" x="0px" y="0px"
	 viewBox="0 0 595.28 841.89" style="enable-background:new 0 0 595.28 841.89;" xml:space="preserve">
<style type="text/css">
	.st0{fill:#296495;}
	.st1{fill:#5F6160;}
	.st2{fill:#FCFDFD;}
</style>
<path class="st0" d="M346.29,378.7c3.28,0.04,6.54,0.21,9.76,0.8c0.84,0.15,1.18-0.01,1.47-0.83c3.33-9.63,8.05-18.55,14.2-26.69
	c12.45-16.48,28.44-28.12,48.03-34.74c12.55-4.24,25.46-5.76,38.65-4.75c23.22,1.78,43.34,10.73,60.32,26.58
	c13.37,12.49,22.53,27.63,27.52,45.26c0.21,0.76,0.32,1.36,1.44,1.27c9.55-0.71,18.4,1.61,26.44,6.72
	c9.84,6.25,16.3,15.08,19.46,26.31c0.45,1.61,0.45,1.61-1.23,1.9c-1.69,0.31-3.4,0.56-5.07,0.97c-1.04,0.25-1.47,0.06-1.79-1.04
	c-3.42-11.51-10.64-19.69-21.77-24.21c-8.88-3.61-17.88-3.39-26.82,0.01c-1.65,0.63-1.65,0.67-1.99-1.01
	c-4.06-20.42-14.11-37.27-30.2-50.45c-11.96-9.79-25.61-15.98-40.93-18.09c-28.86-3.99-53.69,4.51-74.16,25.12
	c-11.66,11.75-19,26-22.33,42.26c-0.46,2.27-0.88,4.54-1.09,6.85c-0.08,0.99-0.38,1.2-1.33,0.76c-5.87-2.8-12.08-4.17-18.57-4.19
	c-19.93-0.07-37.57,13.44-42.72,32.72c-0.35,1.3-0.98,1.65-2.17,1.83c-5.38,0.83-10.74,1.74-16.1,2.62
	c-1.81,0.29-1.78,0.31-1.53-1.5c2.03-14.62,8.46-27.01,19.1-37.16c8.74-8.35,19.13-13.68,30.99-16.1
	C337.95,379.07,342.1,378.73,346.29,378.7z"/>
<path class="st1" d="M197.59,501.11c-6.64,0-13.27,0.03-19.91-0.01c-1.11,0-1.41,0.2-1.12,1.37c1.54,6.2,5.91,9.33,11.78,10.47
	c7.84,1.54,15.54,0.42,23.05-2.11c1.15-0.39,1.48-0.31,1.67,0.98c0.6,4.17,1.33,8.33,2.07,12.48c0.2,1.05-0.11,1.48-1.11,1.86
	c-4.66,1.78-9.54,2.59-14.45,3.14c-5.8,0.64-11.61,0.71-17.35-0.52c-12.92-2.77-22-11.23-24.38-24.99
	c-1.37-7.93-1.18-15.78,1.78-23.33c4.34-11.09,12.32-18.15,24.2-19.93c10.52-1.58,20.21,0.52,27.74,8.77
	c4.28,4.69,6.19,10.47,7.1,16.65c0.69,4.65,0.63,9.33,0.29,14c-0.07,0.95-0.41,1.19-1.33,1.19
	C210.96,501.1,204.28,501.11,197.59,501.11z M188.62,488.23c3.18,0,6.36,0,9.54,0c3.12,0,3.12,0,2.51-3.12
	c-1.74-8.72-11.78-12.57-18.93-7.3c-3.09,2.28-4.31,5.57-5.12,9.14c-0.24,1.01-0.13,1.33,1.01,1.32
	C181.26,488.19,184.95,488.23,188.62,488.23z"/>
<path class="st1" d="M30.76,494.11c0-10.81,0.01-21.63-0.01-32.44c0-1.05,0.14-1.4,1.33-1.12c2.38,0.56,4.8,0.91,7.21,1.37
	c1.16,0.22,2.25-0.17,3.36-0.32c8.84-1.22,17.7-2.17,26.53-0.18c9.97,2.24,16.01,8.79,17.77,18.83c0.63,3.6,0.91,7.2,0.91,10.84
	c-0.01,11.82-0.03,23.64,0.01,35.45c0,1.2-0.31,1.5-1.51,1.48c-5.32-0.07-10.64-0.07-15.95,0c-1.12,0.01-1.33-0.35-1.33-1.39
	c0.03-11.54,0.04-23.09,0.01-34.63c-0.01-2.91-0.22-5.81-0.99-8.63c-1.22-4.44-3.88-6.64-8.46-6.93c-3-0.2-5.99,0.07-8.98,0.32
	c-1.13,0.1-1.09,0.74-1.09,1.55c0.01,16.09,0,32.18,0.03,48.27c0,1.12-0.25,1.44-1.4,1.43c-5.32-0.07-10.64-0.08-15.95,0
	c-1.32,0.03-1.51-0.42-1.51-1.6C30.79,515.65,30.78,504.88,30.76,494.11z"/>
<path class="st1" d="M245.8,529.72c-5.1,0.17-12.01-1.15-18.76-3.47c-1.02-0.35-1.36-0.74-1.08-1.93c0.97-4.19,1.78-8.42,2.6-12.64
	c0.18-0.97,0.45-1.2,1.47-0.81c5.9,2.27,12,3.56,18.32,3.63c2.13,0.03,4.26-0.06,6.34-0.6c1.62-0.43,2.81-1.29,3.18-2.98
	c0.41-1.86-0.15-3.43-1.69-4.56c-2.25-1.65-4.82-2.7-7.39-3.72c-3.46-1.37-6.95-2.65-10.28-4.33c-4.75-2.42-8.56-5.8-10.05-11.06
	c-3.16-11.16,0.76-21.49,13.19-25.5c6.22-2,12.62-1.95,19.02-1.23c4.06,0.46,8.04,1.32,11.94,2.56c0.81,0.27,1.18,0.48,0.92,1.48
	c-1.01,4.19-1.9,8.39-2.8,12.6c-0.18,0.85-0.52,0.91-1.29,0.64c-4.89-1.65-9.87-2.72-15.07-2.58c-1.72,0.04-3.46,0.14-5.1,0.73
	c-1.72,0.62-3.05,1.65-3.29,3.61c-0.24,1.95,0.55,3.42,2.23,4.47c2.63,1.65,5.5,2.77,8.39,3.86c3.36,1.26,6.61,2.73,9.79,4.4
	c7.77,4.07,10.75,10.6,10.19,19.13c-0.55,8.28-5.18,13.25-12.66,16.01C258.75,529.31,253.34,529.73,245.8,529.72z"/>
<path class="st1" d="M283.27,475.63c0-9.59,0.03-19.17-0.04-28.76c-0.01-1.23,0.42-1.6,1.53-1.76c5.38-0.81,10.75-1.65,16.12-2.58
	c1.06-0.18,1.2,0.07,1.2,1.04c-0.04,5.63,0.01,11.27-0.04,16.9c-0.01,1.09,0.25,1.46,1.41,1.44c6.6-0.06,13.18,0,19.77-0.04
	c0.98,0,1.33,0.2,1.32,1.26c-0.07,4.35-0.06,8.72,0,13.09c0.01,1.01-0.24,1.32-1.29,1.3c-6.6-0.06-13.18,0-19.77-0.06
	c-1.09-0.01-1.47,0.21-1.46,1.39c0.07,8.04,0.06,16.09,0.1,24.13c0.01,1.92,0.5,3.77,1.18,5.56c1.29,3.43,4.02,4.73,7.44,4.98
	c4.03,0.29,7.97-0.31,11.83-1.4c1.9-0.53,1.93-0.55,2.28,1.33c0.73,3.92,1.4,7.86,2.16,11.76c0.13,0.69-0.01,0.94-0.66,1.19
	c-7.11,2.83-14.49,3.56-22.07,2.79c-3.98-0.41-7.74-1.46-11.15-3.61c-5.32-3.36-7.91-8.44-9.02-14.44
	c-0.63-3.4-0.88-6.83-0.87-10.29C283.29,492.43,283.27,484.03,283.27,475.63z"/>
<path class="st1" d="M123.48,505.4c2.91-8.02,5.5-15.7,7.9-23.44c1.95-6.32,3.93-12.63,5.53-19.06c0.21-0.83,0.62-1.02,1.43-1.01
	c5.73,0.03,11.45,0.06,17.18-0.01c1.13-0.01,1.02,0.35,0.77,1.18c-4.76,15.95-10.32,31.62-16.86,46.94
	c-2.42,5.67-5.03,11.27-7.73,16.82c-0.43,0.9-0.95,1.22-1.96,1.2c-4.31-0.06-8.64-0.07-12.95,0c-1.04,0.01-1.48-0.35-1.93-1.23
	c-6.26-12.56-11.58-25.51-16.38-38.69c-3-8.22-5.64-16.55-8.25-24.9c-0.35-1.12-0.14-1.34,0.99-1.33
	c5.81,0.06,11.64,0.06,17.45,0.01c0.83,0,1.2,0.24,1.41,1.04c3.22,12.08,7.02,24,11.01,35.86
	C121.78,500.88,122.58,502.93,123.48,505.4z"/>
<path class="st0" d="M586.99,466.72c0-0.9,0-1.53,0-2.16c0-10.4,0.01-20.81-0.03-31.21c0-1.13,0.27-1.57,1.46-1.71
	c1.97-0.22,3.93-0.66,5.88-1.06c0.73-0.15,1.01-0.01,0.97,0.76c-0.04,0.73-0.01,1.46-0.01,2.18c0,31.53,0,63.05,0.03,94.59
	c0,1.16-0.34,1.41-1.4,1.18c-1.68-0.38-3.39-0.63-5.07-0.99c-2.37-0.53-4.55,0.52-6.83,0.7c-6.89,0.55-13.79,1.13-20.54-0.84
	c-10-2.91-16.61-9.51-19.79-19.32c-3.19-9.86-2.88-19.81,0.85-29.49c4.34-11.26,13.85-17.57,25.92-17.76
	c6.43-0.1,12.41,1.39,17.88,4.77C586.44,466.43,586.6,466.51,586.99,466.72z M587.02,497.57c0-7.04-0.03-14.09,0.03-21.13
	c0.01-1.16-0.31-1.88-1.32-2.53c-5.24-3.36-10.91-4.96-17.14-4.84c-8.07,0.14-14.74,4.48-17.71,11.97c-3.05,7.7-3.35,15.7-1.5,23.68
	c1.88,8.16,6.74,13.97,14.98,16.26c7.25,2.02,14.58,1.09,21.83-0.46c0.84-0.18,0.87-0.71,0.85-1.4
	C587.02,511.92,587.02,504.75,587.02,497.57z"/>
<path class="st0" d="M473.68,495.75c-0.07,7.91-1.69,15.57-6.58,22.17c-6.11,8.23-14.45,11.92-24.69,11.51
	c-13.72-0.53-24.69-10.38-27.38-25.44c-1.48-8.29-0.97-16.44,2.17-24.35c4.86-12.28,16.75-19.37,29.88-18.05
	c11.71,1.16,21.63,9.2,25.2,22.67C473.28,487.96,473.67,491.76,473.68,495.75z M464.94,495.57c0.04-3.33-0.32-6.62-1.13-9.84
	c-2.34-9.31-8.67-16.2-18.27-16.75c-7.28-0.41-13.26,1.99-17.55,8.08c-3.3,4.69-4.58,10.01-4.9,15.63
	c-0.41,6.9,0.31,13.62,3.91,19.72c4.09,6.93,10.31,9.98,18.25,9.56c7.39-0.38,12.71-4.03,16.2-10.49
	C464.15,506.5,464.89,501.11,464.94,495.57z"/>
<path class="st0" d="M531.89,496.24c0,10.54,0,21.09,0,31.63c0,1.65-0.01,1.68-1.67,1.32c-2.25-0.49-4.56-0.7-6.79-1.36
	c-0.62-0.18-1.4,0.18-2.11,0.29c-7.11,1.13-14.25,1.74-21.41,0.48c-9.24-1.62-14.84-7.27-17.24-16.23c-1.15-4.28-1.5-8.67-1.5-13.08
	c0-11.68,0.01-23.36-0.03-35.03c0-0.99,0.22-1.36,1.27-1.3c1.9,0.08,3.82,0.1,5.73,0c1.13-0.06,1.33,0.38,1.32,1.4
	c-0.03,11.31-0.03,22.63-0.03,33.94c0,4.47,0.38,8.88,1.78,13.16c1.92,5.87,6.04,9.17,12.07,9.96c6.36,0.84,12.67,0.29,18.95-0.95
	c1.12-0.22,1.41-0.69,1.41-1.81c-0.04-18.09-0.01-36.17-0.04-54.26c0-1.11,0.24-1.51,1.41-1.44c1.68,0.11,3.36,0.01,5.04,0.03
	c2.04,0.03,1.83-0.34,1.83,1.78c0.01,8.14,0,16.27,0,24.41C531.89,491.51,531.89,493.87,531.89,496.24z"/>
<path class="st1" d="M1.86,494.91c0-10.54,0.01-21.09-0.03-31.62c0-1.15,0.29-1.43,1.43-1.41c5.41,0.06,10.81,0.06,16.22,0.01
	c0.95-0.01,1.22,0.27,1.22,1.22c-0.03,21.27-0.03,42.53,0,63.8c0,0.92-0.29,1.12-1.16,1.12c-5.5-0.04-10.99-0.04-16.5,0
	c-0.97,0.01-1.2-0.25-1.2-1.2C1.88,516.17,1.86,505.54,1.86,494.91L1.86,494.91z"/>
<path class="st0" d="M341.44,495.69c0.17,4.82,0.55,9.7,2.6,14.27c2.97,6.6,8.19,10.26,15.19,11.44c6.5,1.09,12.84,0.55,18.86-2.37
	c0.77-0.38,1.08-0.25,1.26,0.63c0.35,1.68,0.78,3.36,1.26,5.01c0.25,0.85-0.04,1.23-0.8,1.54c-6.34,2.56-12.92,3.54-19.73,3.01
	c-4.52-0.35-8.85-1.44-12.84-3.7c-6.44-3.64-10.42-9.24-12.46-16.2c-3.29-11.19-3.05-22.29,2.28-32.85
	c4.47-8.84,11.89-13.74,21.75-14.8c6.3-0.69,12.5-0.06,18.55,1.9c2.39,0.77,2.38,0.83,1.65,3.25c-0.36,1.22-0.81,2.41-1.08,3.65
	c-0.24,1.06-0.62,1.09-1.57,0.7c-6.41-2.66-13.08-3.01-19.76-1.39c-6.93,1.68-10.99,6.53-13.27,13.05
	C341.9,486.98,341.58,491.28,341.44,495.69z"/>
<path class="st0" d="M392.66,473.72c0-13.44,0.01-26.9-0.03-40.34c0-1.13,0.28-1.57,1.43-1.71c1.97-0.25,3.92-0.67,5.88-1.06
	c0.7-0.14,1.01,0,0.94,0.77c-0.06,0.55-0.01,1.09-0.01,1.64c0,26.27,0,52.52,0,78.79c0,1.5,0.15,2.98,0.45,4.45
	c0.56,2.8,2.25,4.48,4.96,5.18c1.09,0.28,2.21,0.52,3.33,0.69c0.74,0.11,0.85,0.46,0.74,1.11c-0.29,1.65-0.56,3.3-0.85,4.96
	c-0.08,0.5-0.17,0.98-0.9,0.92c-3.32-0.24-6.6-0.64-9.55-2.35c-3.96-2.31-5.59-6.02-6.15-10.36c-0.27-2.03-0.28-4.07-0.27-6.12
	C392.68,498.09,392.66,485.91,392.66,473.72z"/>
<path class="st1" d="M22.43,442.81c-0.01,6.46-4.72,11.06-11.26,11.03C4.65,453.81,0,449.25,0,442.86c0-6.67,4.62-11.2,11.38-11.17
	C17.78,431.72,22.45,436.41,22.43,442.81z"/>
<path class="st0" d="M558.17,378.31c-5.59-0.01-9.48-4.23-9.45-10.24c0.01-5.73,4.05-9.96,9.51-9.98c5.45-0.03,9.51,4.27,9.54,10.1
	C567.79,374.08,563.77,378.32,558.17,378.31z M558.24,359.69c-4.62,0-7.8,3.46-7.86,8.57c-0.06,4.87,3.39,8.64,7.87,8.63
	c4.49-0.01,7.76-3.68,7.76-8.72C566.01,363.17,562.81,359.69,558.24,359.69z"/>
<path class="st2" d="M562.88,373.62c-0.62-1.32-1.34-2.51-2.18-3.61c-0.39-0.5-0.63-0.85,0.15-1.32c1.11-0.66,1.51-1.78,1.34-3.05
	c-0.15-1.29-0.87-2.17-2.09-2.6c-1.68-0.6-3.4-0.39-5.12-0.24c-0.64,0.06-0.6,0.56-0.6,1.02c0,3.04,0.01,6.08,0,9.13
	c0,0.52,0.03,0.85,0.71,0.81c0.62-0.03,0.94-0.17,0.9-0.85c-0.04-0.63-0.01-1.27-0.01-1.9c0-1.75-0.01-1.71,1.72-1.62
	c0.6,0.03,0.91,0.32,1.2,0.74c0.57,0.87,1.23,1.69,1.69,2.63C561.1,373.77,561.81,373.91,562.88,373.62z"/>
<path class="st0" d="M562.88,373.62c-1.06,0.28-1.78,0.15-2.3-0.88c-0.46-0.92-1.11-1.76-1.69-2.63c-0.28-0.42-0.6-0.71-1.2-0.74
	c-1.74-0.08-1.74-0.11-1.72,1.62c0,0.63-0.03,1.27,0.01,1.9c0.04,0.69-0.28,0.83-0.9,0.85c-0.67,0.03-0.71-0.29-0.71-0.81
	c0.01-3.04,0.01-6.08,0-9.13c0-0.46-0.04-0.97,0.6-1.02c1.72-0.14,3.44-0.35,5.12,0.24c1.22,0.43,1.93,1.32,2.09,2.6
	c0.15,1.27-0.24,2.39-1.34,3.05c-0.78,0.46-0.55,0.8-0.15,1.32C561.53,371.13,562.26,372.3,562.88,373.62z M555.97,366
	c0,2.16,0,2.16,1.29,2.14c2.14-0.01,3.26-0.73,3.23-2.06c-0.01-1.32-1.19-1.95-3.26-2.07C555.27,363.9,556.21,365.32,555.97,366z"/>
<path class="st2" d="M555.97,366c0.24-0.7-0.7-2.1,1.26-1.99c2.09,0.13,3.25,0.76,3.26,2.07c0.01,1.33-1.09,2.04-3.23,2.06
	C555.97,368.16,555.97,368.16,555.97,366z"/>
</svg>
